<svg width="8" height="14" viewBox="0 0 8 14" fill="none" xmlns="http://www.w3.org/2000/svg">
<path d="M7.66301 6.22744L1.96534 0.819929C1.85841 0.718239 1.73136 0.63754 1.59149 0.582453C1.45161 0.527367 1.30164 0.498974 1.15017 0.498902C0.998704 0.498829 0.848707 0.527077 0.70877 0.582028C0.568834 0.63698 0.441707 0.717556 0.334666 0.819143C0.227626 0.92073 0.142773 1.04133 0.0849695 1.17405C0.0271659 1.30676 -0.00245367 1.44898 -0.00219559 1.59256C-0.00193751 1.73614 0.0281932 1.87826 0.0864736 2.01079C0.144754 2.14331 0.230039 2.26364 0.337444 2.36488L5.22112 6.9998L0.337266 11.635C0.121627 11.8398 0.000520238 12.1172 0.00054446 12.4066C0.000568683 12.6959 0.12172 12.9733 0.337394 13.178C0.553069 13.3827 0.84563 13.4979 1.15083 13.4983C1.45603 13.4987 1.74891 13.3842 1.96516 13.1801L7.663 7.77239C7.87884 7.56738 8.00007 7.28957 8.00007 6.99992C8.00007 6.71028 7.87885 6.43246 7.66301 6.22744Z" fill="white"/>
</svg>
