<svg width="20" height="20" viewBox="0 0 20 20" fill="none" xmlns="http://www.w3.org/2000/svg">
<path d="M10 1.33531e-08C8.02219 1.33531e-08 6.0888 0.586468 4.4443 1.68528C2.79981 2.7841 1.51809 4.34583 0.761214 6.1731C0.00433758 8.00036 -0.193702 10.0111 0.19215 11.9509C0.578002 13.8907 1.53042 15.6725 2.92894 17.071C4.32747 18.4695 6.10929 19.422 8.0491 19.8078C9.98891 20.1937 11.9996 19.9957 13.8268 19.2388C15.6541 18.4819 17.2159 17.2002 18.3147 15.5557C19.4135 13.9112 20 11.9778 20 10C20.0001 8.68676 19.7415 7.38638 19.2389 6.1731C18.7364 4.95981 17.9998 3.85737 17.0712 2.92877C16.1426 2.00017 15.0402 1.26353 13.8269 0.761007C12.6136 0.258484 11.3132 -6.78425e-05 10 1.33531e-08ZM17.0459 15.8553C16.1402 15.4752 13.9828 14.7257 12.6408 14.3286C12.5268 14.2928 12.5089 14.2879 12.5089 13.8135C12.5335 13.422 12.6421 13.0404 12.8272 12.6945C13.0447 12.211 13.1942 11.6997 13.2715 11.1751C13.6212 10.7119 13.8469 10.1671 13.9274 9.59228C14.0657 9.15866 14.0586 8.69172 13.9071 8.26253C13.8959 8.23539 13.8861 8.20768 13.8778 8.17952C13.8592 7.5532 13.9086 6.92672 14.0251 6.31103C14.115 5.42594 13.8574 4.54056 13.3065 3.84196C12.9642 3.42499 12.5345 3.08818 12.0479 2.85533C11.5612 2.62247 11.0294 2.49925 10.4899 2.4943L9.64759 2.49512C9.1125 2.50252 8.58551 2.62693 8.10359 2.8596C7.62168 3.09226 7.19652 3.42755 6.85793 3.84196C6.30581 4.53994 6.0477 5.42573 6.1385 6.31103C6.25497 6.92563 6.30463 7.551 6.28659 8.17627C6.27829 8.2057 6.26796 8.23453 6.25567 8.26253C6.10461 8.69184 6.09775 9.15873 6.23617 9.59228C6.31665 10.1671 6.54241 10.7119 6.89209 11.1751C6.9686 11.6998 7.11815 12.2113 7.33642 12.6945C7.47874 13.0555 7.54121 13.4431 7.51951 13.8306C7.51951 14.3042 7.50243 14.3107 7.39501 14.3441C6.01318 14.7518 3.81759 15.546 2.99884 15.9041C1.87375 14.5714 1.15232 12.9453 0.919308 11.2167C0.686293 9.4882 0.951363 7.72905 1.68338 6.14593C2.41539 4.56282 3.58395 3.22142 5.05182 2.27936C6.51969 1.3373 8.2259 0.8337 9.97006 0.827637C11.7142 0.821573 13.4239 1.31334 14.8983 2.24518C16.3726 3.17701 17.5505 4.51016 18.2935 6.08815C19.0365 7.66614 19.3138 9.42346 19.0928 11.1536C18.8718 12.8837 18.1617 14.5147 17.0459 15.8553Z" fill="#0079C2"/>
</svg>
