<svg width="20" height="20" viewBox="0 0 20 20" fill="none" xmlns="http://www.w3.org/2000/svg">
<g opacity="0.5" clip-path="url(#clip0_494_5269)">
<path d="M10 6.10485e-05C8.02219 6.10485e-05 6.0888 0.586529 4.4443 1.68534C2.79981 2.78416 1.51809 4.3459 0.761214 6.17316C0.00433758 8.00042 -0.193702 10.0111 0.19215 11.9509C0.578002 13.8908 1.53042 15.6726 2.92894 17.0711C4.32747 18.4696 6.10929 19.422 8.0491 19.8079C9.98891 20.1938 11.9996 19.9957 13.8268 19.2388C15.6541 18.482 17.2159 17.2003 18.3147 15.5558C19.4135 13.9113 20 11.9779 20 10.0001C20.0001 8.68682 19.7415 7.38644 19.2389 6.17316C18.7364 4.95987 17.9998 3.85743 17.0712 2.92883C16.1426 2.00023 15.0402 1.26359 13.8269 0.761068C12.6136 0.258545 11.3132 -6.80736e-06 10 6.10485e-05ZM17.0459 15.8554C16.1402 15.4753 13.9828 14.7258 12.6408 14.3287C12.5268 14.2928 12.5089 14.288 12.5089 13.8135C12.5335 13.422 12.6421 13.0404 12.8272 12.6946C13.0447 12.211 13.1942 11.6997 13.2715 11.1752C13.6212 10.7119 13.8469 10.1672 13.9274 9.59235C14.0657 9.15872 14.0586 8.69178 13.9071 8.26259C13.8959 8.23546 13.8861 8.20774 13.8778 8.17959C13.8592 7.55326 13.9086 6.92678 14.0251 6.3111C14.115 5.426 13.8574 4.54062 13.3065 3.84202C12.9642 3.42505 12.5345 3.08824 12.0479 2.85539C11.5612 2.62253 11.0294 2.49932 10.4899 2.49436L9.64759 2.49518C9.1125 2.50258 8.58551 2.62699 8.10359 2.85966C7.62168 3.09233 7.19652 3.42761 6.85793 3.84202C6.30581 4.54 6.0477 5.42579 6.1385 6.3111C6.25497 6.92569 6.30463 7.55106 6.28659 8.17633C6.27829 8.20576 6.26796 8.23459 6.25567 8.26259C6.10461 8.6919 6.09775 9.15879 6.23617 9.59235C6.31665 10.1672 6.54241 10.7119 6.89209 11.1752C6.9686 11.6999 7.11815 12.2113 7.33642 12.6946C7.47874 13.0556 7.54121 13.4432 7.51951 13.8306C7.51951 14.3043 7.50243 14.3108 7.39501 14.3441C6.01318 14.7519 3.81759 15.5461 2.99884 15.9042C1.87375 14.5714 1.15232 12.9453 0.919308 11.2168C0.686293 9.48827 0.951363 7.72911 1.68338 6.146C2.41539 4.56288 3.58395 3.22148 5.05182 2.27942C6.51969 1.33736 8.2259 0.833761 9.97006 0.827698C11.7142 0.821634 13.4239 1.31341 14.8983 2.24524C16.3726 3.17707 17.5505 4.51023 18.2935 6.08822C19.0365 7.66621 19.3138 9.42352 19.0928 11.1536C18.8718 12.8837 18.1617 14.5148 17.0459 15.8554Z" fill="#333333"/>
</g>
<defs>
<clipPath id="clip0_494_5269">
<rect width="20" height="20" fill="white"/>
</clipPath>
</defs>
</svg>
