<svg width="8" height="14" viewBox="0 0 8 14" fill="none" xmlns="http://www.w3.org/2000/svg">
<path d="M0.66864 0.707764L0.221893 1.13361C0.153544 1.19833 0.0990921 1.27632 0.0618891 1.36279C0.0246862 1.44926 0.00552316 1.5424 0.00552316 1.63654C0.00552317 1.73067 0.0246862 1.82381 0.0618891 1.91028C0.0990921 1.99675 0.153544 2.07474 0.221893 2.13947L5.28308 6.99707L0.216278 11.8603C0.147961 11.925 0.0935495 12.003 0.0563659 12.0895C0.0191823 12.1759 -5.38069e-08 12.269 -4.96929e-08 12.3632C-4.55789e-08 12.4573 0.0191823 12.5504 0.0563659 12.6369C0.0935495 12.7234 0.147961 12.8014 0.216278 12.8661L0.660278 13.292C0.801997 13.4256 0.989383 13.5 1.18414 13.5C1.3789 13.5 1.56632 13.4256 1.70804 13.292L7.76239 7.50177C7.83378 7.43794 7.89158 7.36043 7.9324 7.2738C7.97323 7.18718 7.99621 7.09318 8 6.9975L8 6.9953C7.99601 6.89988 7.97294 6.80625 7.93213 6.71991C7.89131 6.63357 7.8336 6.55626 7.76239 6.49261L1.72443 0.707764C1.58128 0.57306 1.39178 0.498675 1.19522 0.5C0.999426 0.498556 0.810688 0.573007 0.66864 0.707764Z" fill="#0079C2"/>
</svg>
