<svg width="8" height="14" viewBox="0 0 8 14" fill="none" xmlns="http://www.w3.org/2000/svg">
<path d="M7.33136 13.2922L7.77811 12.8664C7.84645 12.8017 7.90091 12.7237 7.93811 12.6372C7.97531 12.5507 7.99448 12.4576 7.99448 12.3635C7.99448 12.2693 7.97531 12.1762 7.93811 12.0897C7.90091 12.0033 7.84645 11.9253 7.77811 11.8605L2.71692 7.00293L7.78372 2.13971C7.85204 2.07497 7.90645 1.99698 7.94363 1.91052C7.98082 1.82406 8 1.73096 8 1.63684C8 1.54272 7.98082 1.44956 7.94363 1.3631C7.90645 1.27664 7.85204 1.19865 7.78372 1.13391L7.33972 0.708008C7.198 0.574414 7.01062 0.5 6.81586 0.5C6.6211 0.5 6.43368 0.574414 6.29196 0.708008L0.23761 6.49823C0.166222 6.56206 0.108419 6.63957 0.0675962 6.7262C0.0267737 6.81282 0.00378581 6.90681 -2.84233e-07 7.0025L-2.84329e-07 7.0047C0.00398655 7.10012 0.0270545 7.19375 0.0678708 7.28009C0.108687 7.36643 0.166403 7.44374 0.23761 7.50738L6.27557 13.2922C6.41872 13.4269 6.60822 13.5013 6.80478 13.5C7.00057 13.5014 7.18931 13.427 7.33136 13.2922Z" fill="#0079C2"/>
</svg>
