<svg width="59" height="86" viewBox="0 0 59 86" fill="none" xmlns="http://www.w3.org/2000/svg">
<path d="M49.6255 33.7237V28.177C49.5798 26.9752 49.9741 25.7982 50.7343 24.8675C51.1587 24.4104 51.6777 24.0518 52.255 23.817C52.8323 23.5821 53.4539 23.4767 54.0762 23.5081C54.7027 23.4705 55.33 23.5647 55.9179 23.7846C56.5057 24.0046 57.0411 24.3455 57.4896 24.7853C57.9381 25.225 58.2896 25.754 58.5217 26.3382C58.7538 26.9223 58.8612 27.5487 58.8371 28.177V53.9838C58.8236 56.1303 58.521 58.2652 57.9376 60.3307C56.5187 65.4968 55.7355 69.0469 55.5184 73.778C55.437 75.5306 55.4992 77.287 55.7045 79.0294L55.7123 79.076C55.7852 79.8497 55.6236 80.6275 55.2488 81.3079C54.874 81.9883 54.3033 82.5398 53.611 82.8904C51.2073 84.2188 46.7567 85.8346 39.375 85.8346C31.5592 85.8346 27.3256 83.8615 25.2553 82.3776C24.7379 82.0302 24.312 81.5627 24.0136 81.0149C23.7153 80.4672 23.5534 79.8553 23.5417 79.2314V79.2081C23.4834 77.7027 23.2519 76.209 22.8516 74.7567C21.6498 70.7404 22.0375 70.6705 18.5172 65.8308C15.8343 62.1407 14.7643 54.0692 12.7096 50.6822L2.23417 38.3692C0.675637 36.4814 0.191645 33.8597 3.08529 31.4622C5.76845 29.2391 8.35968 30.8959 9.58477 31.9291L21.4791 43.31V5.59394C21.4785 4.36182 21.9611 3.1788 22.8229 2.29981C23.6847 1.42082 24.8567 0.91626 26.0863 0.894859C27.3159 0.873459 28.5046 1.33694 29.3964 2.18541C30.2881 3.03388 30.8114 4.19939 30.8535 5.43079V33.7237H30.8613L30.8535 22.0591C30.8535 20.8125 31.3478 19.617 32.2276 18.7355C33.1074 17.8541 34.3006 17.3589 35.5448 17.3589C36.1609 17.3589 36.771 17.4804 37.3402 17.7167C37.9094 17.9529 38.4265 18.2991 38.8622 18.7355C39.2978 19.172 39.6434 19.6901 39.8792 20.2604C40.1149 20.8307 40.2363 21.4419 40.2363 22.0591L40.2434 33.7237V24.9919C40.2434 23.7454 40.7376 22.5499 41.6174 21.6685C42.4971 20.7871 43.6903 20.2919 44.9345 20.2919C46.1786 20.2919 47.3718 20.7871 48.2515 21.6685C49.1313 22.5499 49.6255 23.7454 49.6255 24.9919V33.7237Z" fill="white"/>
</svg>
