<svg width="121" height="60" viewBox="0 0 121 60" fill="none" xmlns="http://www.w3.org/2000/svg">
<g clip-path="url(#clip0_494_5689)">
<path d="M120.23 39.2349V60H116.26V46.9766H116.133L114.084 60H110.92L108.886 46.9766H108.744V60H104.788V39.2349H109.931L112.502 53.8183L115.088 39.2349H120.23Z" fill="white"/>
<path d="M102.19 42.941V56.2789C102.19 57.7386 102.02 60 99.251 60H95.9882C93.204 60 93.0496 57.7386 93.0496 56.2789V42.941C93.0496 41.4812 93.204 39.2345 95.9882 39.2345H99.251C102.02 39.2345 102.19 41.4812 102.19 42.941ZM98.2481 56.6367V42.4834C98.2523 42.3982 98.2395 42.313 98.2104 42.2328C98.1812 42.1526 98.1364 42.079 98.0784 42.0163C98.0205 41.9537 97.9506 41.9032 97.8728 41.8678C97.7951 41.8325 97.7111 41.813 97.6257 41.8105C97.5394 41.8097 97.4539 41.827 97.3747 41.8612C97.2956 41.8955 97.2244 41.946 97.1659 42.0094C97.1075 42.0728 97.0629 42.1477 97.0352 42.2293C97.0075 42.311 96.9972 42.3975 97.005 42.4834V56.6367C96.9972 56.7226 97.0075 56.8091 97.0352 56.8908C97.0629 56.9724 97.1075 57.0473 97.1659 57.1107C97.2244 57.1741 97.2956 57.2246 97.3748 57.2588C97.4539 57.2931 97.5394 57.3104 97.6257 57.3096C97.7111 57.3071 97.7951 57.2876 97.8729 57.2523C97.9506 57.2169 98.0205 57.1664 98.0784 57.1038C98.1364 57.0411 98.1812 56.9675 98.2104 56.8873C98.2395 56.8071 98.2523 56.7219 98.2481 56.6367Z" fill="white"/>
<path d="M90.4501 42.941V49.2238C90.4501 50.6836 90.2804 52.9304 87.5116 52.9304H85.2503V60H81.2949V39.2345H87.5116C90.2804 39.2345 90.4501 41.4812 90.4501 42.941ZM86.4796 49.6102V42.8411C86.4796 42.1968 86.1829 41.8104 85.7456 41.8104H85.2503V50.6403H85.7456C86.1829 50.6403 86.4796 50.2685 86.4796 49.6102Z" fill="white"/>
<path d="M78.6956 39.2349V60H74.74V41.8097H73.4976V60H69.5266V39.2349H78.6956Z" fill="white"/>
<path d="M66.941 52.1001V56.2789C66.941 57.7386 66.7575 60 63.9886 60H60.7105C57.9416 60 57.772 57.7386 57.772 56.2789V52.7297H61.7425V56.6367C61.7335 56.7228 61.743 56.8098 61.7703 56.892C61.7976 56.9742 61.8421 57.0496 61.9008 57.1132C61.9595 57.1769 62.0312 57.2273 62.1109 57.2612C62.1907 57.295 62.2768 57.3115 62.3634 57.3096C62.4476 57.3054 62.5302 57.2847 62.6064 57.2486C62.6826 57.2125 62.7509 57.1618 62.8074 57.0993C62.8639 57.0368 62.9075 56.9637 62.9357 56.8843C62.9639 56.805 62.9762 56.7208 62.9717 56.6367V51.7995C62.9717 51.156 62.8587 50.4404 61.3893 50.4404H59.7794V48.1645H61.446C62.5759 48.1645 62.9717 47.8928 62.9717 46.6188V42.4834C62.9762 42.3993 62.9639 42.3151 62.9357 42.2357C62.9075 42.1563 62.8639 42.0833 62.8074 42.0208C62.7509 41.9583 62.6826 41.9075 62.6064 41.8714C62.5302 41.8353 62.4476 41.8146 62.3634 41.8105C62.2768 41.8085 62.1907 41.825 62.1109 41.8588C62.0311 41.8927 61.9595 41.9431 61.9008 42.0068C61.842 42.0704 61.7975 42.1459 61.7702 42.228C61.743 42.3102 61.7335 42.3973 61.7425 42.4834V45.8753H57.772V42.941C57.772 41.4812 57.9416 39.2345 60.7105 39.2345H63.9886C66.7575 39.2345 66.941 41.4812 66.941 42.941V46.2609C66.9924 46.6325 66.959 47.0109 66.8435 47.3678C66.7279 47.7247 66.5331 48.0509 66.2736 48.3221C66.0141 48.5932 65.6966 48.8022 65.3449 48.9336C64.9932 49.0649 64.6163 49.1152 64.2424 49.0806V49.2811C64.6183 49.2368 64.9995 49.2803 65.3557 49.4083C65.712 49.5362 66.0336 49.7451 66.2953 50.0184C66.557 50.2918 66.7515 50.6221 66.8635 50.9833C66.9756 51.3446 67.0021 51.7269 66.941 52.1001Z" fill="white"/>
<path d="M54.0154 39.2345L56.078 60H52.2066L51.8397 54.4759H49.9743L49.6074 60H45.7361L47.7987 39.2345H54.0154ZM51.6976 52.1861L51.0202 41.8104H50.7939L50.1151 52.1861H51.6976Z" fill="white"/>
<path d="M45.6371 39.2349V41.8097H42.0488V60H38.0933V39.2349H45.6371Z" fill="white"/>
<path d="M35.5503 39.2275V53.4242C33.6468 55.493 31.3344 57.1449 28.7593 58.2755C26.1842 59.4061 23.4023 59.9909 20.5894 59.993C15.1296 59.9151 9.91982 57.6938 6.08642 53.8093C2.25301 49.9248 0.104004 44.6892 0.104004 39.2345C0.104004 33.7798 2.25301 28.5443 6.08642 24.6598C9.91982 20.7753 15.1296 18.554 20.5894 18.4761V34.0893C19.0747 34.0894 17.5752 34.3907 16.1782 34.9756C14.7812 35.5605 13.5147 36.4173 12.4524 37.496C11.9293 38.0286 11.4563 38.6082 11.0397 39.2275C9.55215 41.4781 8.88105 44.1697 9.13809 46.8543C9.39513 49.5389 10.5648 52.0546 12.4524 53.9827C13.5101 55.0629 14.7727 55.9217 16.1665 56.5089C17.5603 57.0961 19.0572 57.3999 20.5699 57.4025C22.0825 57.4051 23.5805 57.1064 24.9763 56.524C26.3721 55.9417 27.6377 55.0872 28.6991 54.0106C28.7128 53.9965 28.7266 53.9965 28.7266 53.9827C28.7404 53.9679 28.7541 53.9679 28.7694 53.954C29.8493 52.8504 30.4539 51.3684 30.4539 49.8252C30.4539 48.2819 29.8493 46.7999 28.7694 45.6963C28.2374 45.1558 27.603 44.7264 26.9032 44.4333C26.2034 44.1403 25.4521 43.9893 24.6933 43.9893C23.9344 43.9893 23.1832 44.1403 22.4834 44.4333C21.7835 44.7264 21.1491 45.1558 20.6171 45.6963L20.5894 45.7251V39.2275H35.5503Z" fill="white"/>
<path d="M32.8515 10.8334C33.935 15.0436 34.1658 19.4277 33.5304 23.7282C32.8269 28.827 30.9451 33.6922 28.0339 37.9389C26.6961 36.0541 25.5777 34.0232 24.7007 31.8853C23.593 29.0678 22.8291 26.1272 22.4256 23.1272C22.2667 21.7542 22.1866 20.3732 22.1855 18.9911C22.1891 15.771 22.6457 12.5673 23.5418 9.47417C24.5838 6.12492 26.0863 2.93642 28.0062 0C30.2249 3.31033 31.8634 6.97377 32.8515 10.8334ZM32.4846 20.2936C32.5203 17.087 32.1211 13.8904 31.2981 10.7908C30.508 8.06519 29.3984 5.44236 27.9925 2.97675C26.6122 5.48991 25.5173 8.14926 24.7282 10.9053C24.1001 13.264 23.7168 15.6811 23.5846 18.1182C23.4988 20.7764 23.6739 23.4367 24.1074 26.0607C24.0821 23.3098 24.328 20.5631 24.8414 17.8604C25.4988 14.8189 26.5584 11.8785 27.9925 9.1164C29.435 11.8839 30.5082 14.8283 31.1849 17.8744C31.716 20.5453 31.9433 23.2676 31.8623 25.9895C32.2464 24.1143 32.4547 22.2074 32.4846 20.2936ZM28.0062 36.5512C29.1544 34.3338 29.723 31.8625 29.6591 29.3669C29.5918 27.105 29.0375 24.8842 28.0339 22.8555C26.9192 24.9533 26.337 27.2923 26.3383 29.6673C26.3585 32.0593 26.9291 34.4147 28.0062 36.5512Z" fill="white"/>
</g>
<defs>
<clipPath id="clip0_494_5689">
<rect width="120.125" height="60" fill="white" transform="translate(0.104492)"/>
</clipPath>
</defs>
</svg>
