<svg width="10" height="10" viewBox="0 0 10 10" fill="none" xmlns="http://www.w3.org/2000/svg">
<path d="M9.62283 5.89701C9.86958 5.67041 10 5.38778 10 5.07964C10 4.70153 9.83689 4.39411 9.52831 4.19063C9.24685 4.00503 8.84402 3.91093 8.331 3.91093H6.44523C6.45101 3.89821 6.4573 3.8844 6.4641 3.8695C6.57931 3.61686 6.81906 3.09115 6.99085 2.50726C7.08938 2.1724 7.15092 1.86571 7.1738 1.59571C7.20326 1.24808 7.16926 0.948858 7.07276 0.706356C6.95409 0.408125 6.74566 0.193381 6.45326 0.068087C6.44973 0.0665752 6.44617 0.0651229 6.44259 0.0637302C6.39727 0.0461311 5.98795 -0.101628 5.57409 0.124025C5.23478 0.309029 5.01481 0.676148 4.92032 1.21518C4.83231 1.71723 4.63838 2.18308 4.32743 2.63936C4.04384 3.05551 3.69244 3.4244 3.3526 3.78115C3.20443 3.9367 3.05372 4.09492 2.90829 4.25761C2.79411 4.14921 2.64083 4.08856 2.48125 4.08863H0.61307C0.450529 4.08881 0.2947 4.15167 0.179767 4.26343C0.0648336 4.37519 0.000183314 4.52671 0 4.68475V9.16683C0.000183314 9.32488 0.0648336 9.4764 0.179767 9.58815C0.2947 9.69991 0.450529 9.76277 0.61307 9.76295H2.48125C2.57891 9.76292 2.67514 9.74018 2.76193 9.69664C2.84871 9.6531 2.92353 9.59001 2.98015 9.51264C2.98117 9.51336 2.98213 9.51407 2.98315 9.51479C3.18711 9.65812 3.42417 9.77173 3.68772 9.85246C4.00709 9.95028 4.36689 9.99988 4.75708 9.99988H7.69721C7.70071 9.99996 7.70475 10 7.70929 10C7.80699 10 8.14035 9.97853 8.40853 9.70447C8.6263 9.48193 8.73505 9.16321 8.7331 8.7548C8.91716 8.66968 9.14569 8.51496 9.26732 8.24499C9.38004 7.99475 9.37349 7.71051 9.24841 7.39689C9.42663 7.29711 9.6195 7.13672 9.71461 6.88635C9.82231 6.60281 9.77557 6.28487 9.57591 5.93818C9.59148 5.92512 9.60712 5.9114 9.62283 5.89701ZM2.43676 9.12357H0.657566V4.72801H2.43676V9.12357ZM8.98822 5.55805C8.94286 5.57694 8.90255 5.60569 8.87039 5.64209C8.83823 5.67848 8.81507 5.72156 8.80269 5.76801C8.7902 5.81497 8.78891 5.8641 8.79893 5.91162C8.80894 5.95915 8.82999 6.00382 8.86047 6.04223C9.06478 6.30558 9.14926 6.52613 9.09835 6.66328C9.04194 6.81521 8.80653 6.90108 8.72639 6.91982C8.67543 6.93015 8.62778 6.95226 8.58745 6.98427C8.54713 7.01628 8.51532 7.05725 8.49471 7.10373C8.47394 7.15061 8.46505 7.20165 8.46877 7.25256C8.4725 7.30347 8.48874 7.35277 8.51612 7.39632C8.6702 7.64602 8.7234 7.85555 8.66595 7.98631C8.59254 8.15336 8.34273 8.21758 8.32349 8.22228C8.1569 8.25374 8.04786 8.4024 8.06476 8.5668C8.09789 8.88891 8.05277 9.13434 7.93774 9.25788C7.87977 9.31895 7.7997 9.35576 7.71438 9.36057C7.71216 9.36038 7.71108 9.36032 7.71014 9.36032C7.70852 9.36032 7.70732 9.3605 7.7015 9.3605H4.75708C4.20707 9.3605 3.73861 9.24268 3.40233 9.01979C3.23886 8.91143 3.14272 8.80195 3.09585 8.7393V5.04582C3.3124 4.76427 3.56693 4.49707 3.83502 4.21563C4.19268 3.84017 4.56252 3.45193 4.87558 2.99254C5.23816 2.46049 5.46483 1.91426 5.56854 1.32261C5.62651 0.991888 5.7379 0.771244 5.89065 0.684528C6.02241 0.609726 6.16754 0.648126 6.19807 0.657559C6.32283 0.713697 6.40607 0.802781 6.45951 0.937075C6.54065 1.14099 6.58901 1.54842 6.35864 2.3314C6.19942 2.87258 5.97218 3.37086 5.86298 3.61032C5.85332 3.6315 5.84461 3.65061 5.83697 3.66748C5.7801 3.79317 5.75126 3.9053 5.7488 4.0103C5.74589 4.13464 5.78157 4.24868 5.852 4.34008C6.02037 4.55861 6.29815 4.55833 6.39782 4.55031H8.331C8.80311 4.55031 9.04198 4.64248 9.15924 4.7198C9.28593 4.80335 9.34243 4.91433 9.34243 5.07964C9.34243 5.38687 9.01611 5.54511 8.98822 5.55805Z" fill="#979A9F"/>
</svg>
