<svg width="121" height="64" viewBox="0 0 121 64" fill="none" xmlns="http://www.w3.org/2000/svg">
<g clip-path="url(#clip0_281_2675)">
<path d="M120.125 41.4274V63.3529H116.156V49.6017H116.029L113.98 63.3529H110.815L108.782 49.6017H108.639V63.3529H104.684V41.4274H109.827L112.398 56.8258L114.984 41.4274H120.125Z" fill="white"/>
<path d="M102.085 45.3407V59.424C102.085 60.9653 101.915 63.353 99.1464 63.353H95.8836C93.0994 63.353 92.945 60.9653 92.945 59.424V45.3407C92.945 43.7994 93.0994 41.4271 95.8836 41.4271H99.1464C101.915 41.4271 102.085 43.7994 102.085 45.3407ZM98.1435 59.8018V44.8576C98.1477 44.7676 98.1349 44.6776 98.1057 44.593C98.0766 44.5083 98.0318 44.4306 97.9738 44.3644C97.9158 44.2982 97.846 44.2449 97.7682 44.2076C97.6905 44.1703 97.6065 44.1497 97.5211 44.147C97.4348 44.1462 97.3493 44.1645 97.2701 44.2007C97.1909 44.2368 97.1198 44.2901 97.0613 44.3571C97.0028 44.424 96.9583 44.5031 96.9306 44.5893C96.9029 44.6755 96.8926 44.7669 96.9004 44.8576V59.8018C96.8926 59.8925 96.9029 59.9839 96.9306 60.0701C96.9583 60.1563 97.0029 60.2354 97.0613 60.3023C97.1198 60.3693 97.191 60.4225 97.2701 60.4587C97.3493 60.4949 97.4348 60.5132 97.5211 60.5123C97.6065 60.5097 97.6905 60.4891 97.7682 60.4518C97.846 60.4144 97.9159 60.3611 97.9738 60.295C98.0318 60.2288 98.0766 60.1511 98.1058 60.0664C98.1349 59.9817 98.1477 59.8918 98.1435 59.8018Z" fill="white"/>
<path d="M90.3456 45.3407V51.9747C90.3456 53.516 90.176 55.8883 87.4071 55.8883H85.1459V63.353H81.1905V41.4271H87.4071C90.176 41.4271 90.3456 43.7994 90.3456 45.3407ZM86.3751 52.3827V45.2353C86.3751 44.555 86.0784 44.147 85.6412 44.147H85.1459V53.4703H85.6412C86.0784 53.4703 86.3751 53.0778 86.3751 52.3827Z" fill="white"/>
<path d="M78.591 41.4274V63.3529H74.6355V44.1461H73.393V63.3529H69.422V41.4274H78.591Z" fill="white"/>
<path d="M66.8366 55.0117V59.424C66.8366 60.9653 66.6531 63.353 63.8843 63.353H60.6061C57.8373 63.353 57.6676 60.9653 57.6676 59.424V55.6764H61.6381V59.8018C61.6291 59.8927 61.6386 59.9846 61.6659 60.0714C61.6932 60.1581 61.7377 60.2378 61.7964 60.305C61.8552 60.3722 61.9268 60.4254 62.0066 60.4612C62.0863 60.4969 62.1724 60.5144 62.259 60.5123C62.3433 60.5079 62.4258 60.486 62.502 60.4479C62.5782 60.4098 62.6465 60.3562 62.703 60.2902C62.7595 60.2242 62.8031 60.1471 62.8314 60.0633C62.8596 59.9795 62.8718 59.8906 62.8674 59.8018V54.6943C62.8674 54.0148 62.7543 53.2593 61.2849 53.2593H59.675V50.8562H61.3416C62.4715 50.8562 62.8674 50.5692 62.8674 49.2241V44.8576C62.8718 44.7687 62.8596 44.6799 62.8314 44.5961C62.8032 44.5122 62.7595 44.4351 62.703 44.3691C62.6465 44.3031 62.5782 44.2495 62.502 44.2114C62.4258 44.1733 62.3433 44.1514 62.259 44.147C62.1724 44.1449 62.0863 44.1624 62.0065 44.1981C61.9268 44.2338 61.8551 44.2871 61.7964 44.3543C61.7376 44.4215 61.6931 44.5012 61.6659 44.588C61.6386 44.6747 61.6291 44.7666 61.6381 44.8576V48.439H57.6676V45.3407C57.6676 43.7994 57.8373 41.4271 60.6061 41.4271H63.8843C66.6531 41.4271 66.8366 43.7994 66.8366 45.3407V48.8462C66.888 49.2386 66.8547 49.6381 66.7391 50.0149C66.6235 50.3918 66.4287 50.7362 66.1692 51.0225C65.9097 51.3088 65.5922 51.5295 65.2405 51.6682C64.8888 51.8069 64.5119 51.86 64.138 51.8234V52.0352C64.514 51.9884 64.8951 52.0344 65.2514 52.1695C65.6076 52.3046 65.9293 52.5251 66.1909 52.8137C66.4526 53.1023 66.6471 53.4511 66.7592 53.8325C66.8712 54.2139 66.8977 54.6176 66.8366 55.0117Z" fill="white"/>
<path d="M53.9108 41.4271L55.9734 63.353H52.1021L51.7352 57.5203H49.8698L49.5029 63.353H45.6315L47.6942 41.4271H53.9108ZM51.593 55.1025L50.9156 44.147H50.6894L50.0105 55.1025H51.593Z" fill="white"/>
<path d="M45.5326 41.4274V44.1461H41.9443V63.3529H37.9887V41.4274H45.5326Z" fill="white"/>
<path d="M35.4458 41.4196V56.4097C33.5422 58.594 31.2298 60.3382 28.6547 61.532C26.0796 62.7259 23.2977 63.3434 20.4849 63.3455C15.025 63.2633 9.81525 60.9178 5.98185 56.8163C2.14844 52.7147 -0.00056839 47.1866 -0.00056839 41.427C-0.00056839 35.6675 2.14844 30.1394 5.98185 26.0378C9.81525 21.9362 15.025 19.5908 20.4849 19.5085V35.9943C18.9701 35.9944 17.4706 36.3126 16.0736 36.9301C14.6766 37.5477 13.4101 38.4523 12.3479 39.5913C11.8247 40.1537 11.3518 40.7657 10.9351 41.4196C9.44757 43.7959 8.77647 46.6379 9.03352 49.4726C9.29056 52.3072 10.4602 54.9635 12.3479 56.9993C13.4055 58.1399 14.6682 59.0467 16.0619 59.6667C17.4557 60.2867 18.9527 60.6075 20.4653 60.6102C21.9779 60.613 23.4759 60.2977 24.8717 59.6827C26.2675 59.0678 27.5331 58.1656 28.5945 57.0288C28.6082 57.014 28.622 57.014 28.622 56.9993C28.6359 56.9838 28.6495 56.9838 28.6648 56.9691C29.7447 55.8038 30.3493 54.239 30.3493 52.6095C30.3493 50.98 29.7447 49.4152 28.6648 48.2499C28.1329 47.6791 27.4984 47.2258 26.7986 46.9164C26.0988 46.6069 25.3475 46.4475 24.5887 46.4475C23.8299 46.4475 23.0786 46.6069 22.3788 46.9164C21.679 47.2258 21.0446 47.6791 20.5126 48.2499L20.4849 48.2803V41.4196H35.4458Z" fill="white"/>
<path d="M32.7471 11.4388C33.8306 15.8843 34.0614 20.5133 33.426 25.0542C32.7225 30.4379 30.8407 35.575 27.9295 40.059C26.5917 38.0689 25.4733 35.9245 24.5963 33.6671C23.4886 30.6922 22.7247 27.5873 22.3212 24.4196C22.1623 22.9699 22.0822 21.5117 22.0811 20.0523C22.0847 16.6523 22.5413 13.2696 23.4374 10.0036C24.4794 6.46719 25.9819 3.10051 27.9018 0C30.1205 3.49532 31.759 7.36348 32.7471 11.4388ZM32.3802 21.4277C32.4159 18.0419 32.0167 14.6666 31.1937 11.3938C30.4036 8.5159 29.294 5.7465 27.8881 3.1431C26.5078 5.7967 25.4129 8.60466 24.6238 11.5147C23.9957 14.0052 23.6124 16.5574 23.4802 19.1307C23.3944 21.9375 23.5695 24.7463 24.003 27.5171C23.9777 24.6125 24.2236 21.7123 24.737 18.8584C25.3944 15.6471 26.454 12.5423 27.8881 9.62585C29.3306 12.548 30.4038 15.6569 31.0805 18.8732C31.6116 21.6934 31.8389 24.5678 31.7579 27.4418C32.142 25.4619 32.3503 23.4484 32.3802 21.4277ZM27.9018 38.5937C29.05 36.2525 29.6186 33.6431 29.5547 31.008C29.4874 28.6197 28.9331 26.2748 27.9295 24.1327C26.8148 26.3477 26.2326 28.8175 26.2339 31.3252C26.2541 33.8509 26.8247 36.3379 27.9018 38.5937Z" fill="white"/>
</g>
<defs>
<clipPath id="clip0_281_2675">
<rect width="120.125" height="63.3529" fill="white"/>
</clipPath>
</defs>
</svg>
