<svg width="100" height="100" viewBox="0 0 100 100" fill="none" xmlns="http://www.w3.org/2000/svg">
<path d="M100 0H0.000488281V100H100V0Z" fill="#E6E6E6"/>
<path d="M100.001 100L40.001 99.7071L68.9497 62L100.001 100Z" fill="#979A9F"/>
<path d="M90 100L0 100L43.4234 43L90 100Z" fill="#808080"/>
<path d="M89.8035 18.9168C89.8034 20.0869 89.4573 21.2309 88.8088 22.2038C88.1604 23.1768 87.2387 23.9351 86.1603 24.3829C85.082 24.8307 83.8954 24.9479 82.7506 24.7196C81.6059 24.4913 80.5543 23.9278 79.729 23.1004C78.9037 22.2729 78.3416 21.2187 78.1139 20.071C77.8862 18.9233 78.003 17.7336 78.4497 16.6525C78.8964 15.5714 79.6527 14.6473 80.6232 13.9972C81.5937 13.347 82.7347 13 83.9019 13C85.4671 13 86.9682 13.6234 88.0749 14.733C89.1817 15.8426 89.8034 17.3475 89.8035 18.9168Z" fill="#B8BDC7"/>
</svg>
