<svg width="14" height="15" viewBox="0 0 14 15" fill="none" xmlns="http://www.w3.org/2000/svg">
<path d="M6.30788 0.657972C6.56452 0.0432017 7.43548 0.0432004 7.69212 0.657971L9.05934 3.93317C9.1619 4.17886 9.38703 4.35177 9.65086 4.38748L13.2876 4.87969C13.9378 4.96769 14.1695 5.78917 13.6612 6.20399L10.8666 8.48444C10.6451 8.66518 10.5456 8.9561 10.6101 9.23461L11.5027 13.0919C11.6578 13.762 10.9042 14.27 10.3412 13.8748L7.43086 11.8322C7.17229 11.6507 6.82771 11.6507 6.56914 11.8322L3.6588 13.8749C3.09577 14.27 2.34218 13.7621 2.49725 13.0919L3.3898 9.2346C3.45425 8.95609 3.35477 8.66518 3.1333 8.48444L0.338801 6.20399C-0.169524 5.78917 0.0622221 4.96769 0.712396 4.87969L4.34914 4.38748C4.61297 4.35177 4.8381 4.17886 4.94066 3.93317L6.30788 0.657972Z" fill="#828282"/>
</svg>
