<svg width="20" height="20" viewBox="0 0 20 20" fill="none" xmlns="http://www.w3.org/2000/svg">
<g clip-path="url(#clip0_412_3225)">
<path d="M18.892 14.576L19.032 18.389L13.503 12.86L12.86 13.503L18.387 19.031L14.576 18.891L14.544 19.801L20 19.999L19.801 14.543L18.892 14.576Z" fill="#0079C2"/>
<path d="M1.107 5.424L0.968 1.612L6.478 7.121L7.121 6.479L1.61 0.968L5.423 1.108L5.456 0.199L0 0L0.198 5.456L1.107 5.424Z" fill="#0079C2"/>
<path d="M6.496 12.86L0.968 18.388L1.107 14.576L0.198 14.544L0 20L5.456 19.801L5.423 18.892L1.61 19.032L7.139 13.503L6.496 12.86Z" fill="#0079C2"/>
<path d="M13.44 7.20198L19.032 1.61098L18.892 5.42398L19.801 5.45698L20 0.000976562L14.544 0.198977L14.576 1.10898L18.387 0.968977L12.798 6.55898L13.44 7.20198Z" fill="#0079C2"/>
</g>
<defs>
<clipPath id="clip0_412_3225">
<rect width="20" height="20" fill="white"/>
</clipPath>
</defs>
</svg>
