<svg width="9" height="17" viewBox="0 0 9 17" fill="none" xmlns="http://www.w3.org/2000/svg">
<path d="M7.65493 2.00362C7.52705 2.00988 7.40689 2.06571 7.32065 2.15892C7.23442 2.25213 7.18912 2.37514 7.19463 2.50113V11.8739C7.19669 11.9373 7.19669 12.0038 7.19463 12.0713C7.17342 12.9333 6.80701 13.752 6.17532 14.349C5.90204 14.6067 5.57928 14.8082 5.22594 14.9416C4.8726 15.075 4.4958 15.1376 4.11759 15.1257C4.04205 15.1277 3.96148 15.1277 3.88392 15.1257C3.07142 15.059 2.31825 14.6799 1.78743 14.0704C1.25661 13.4609 0.99083 12.67 1.04762 11.8689V3.1261C1.06264 2.7734 1.14535 2.4267 1.29136 2.10431C1.43077 1.79064 1.66615 1.52768 1.96463 1.35215C2.26311 1.17661 2.6098 1.09726 2.95628 1.12517C3.01463 1.12123 3.07317 1.12107 3.13154 1.12468C3.6267 1.17171 4.08325 1.40861 4.40264 1.78425C4.72204 2.1599 4.87867 2.64416 4.83875 3.13255V11.2429C4.84381 11.2858 4.84381 11.3291 4.83875 11.3719C4.82242 11.5605 4.73077 11.735 4.58393 11.857C4.51862 11.9113 4.44282 11.9519 4.3611 11.9765C4.27939 12.001 4.19346 12.009 4.10853 11.9999C4.0736 12.0065 4.03771 12.0065 4.00278 11.9999C3.82156 11.9752 3.65733 11.8817 3.54517 11.7393C3.43302 11.597 3.38182 11.417 3.40251 11.238V5.62553C3.40861 5.56244 3.40125 5.49879 3.38092 5.43867C3.36059 5.37854 3.32772 5.32326 3.28443 5.27637C3.24114 5.22949 3.18839 5.19202 3.12954 5.16639C3.07069 5.14075 3.00706 5.12751 2.94272 5.12751C2.87837 5.12751 2.81474 5.14075 2.75589 5.16639C2.69705 5.19202 2.64429 5.22949 2.601 5.27637C2.55771 5.32326 2.52484 5.37854 2.50451 5.43867C2.48418 5.49879 2.47682 5.56244 2.48292 5.62553V11.2489C2.48189 11.2856 2.48189 11.3183 2.48292 11.3511C2.49281 11.8158 2.68865 12.2579 3.02782 12.5812C3.17018 12.7212 3.34061 12.8305 3.52825 12.9021C3.71589 12.9737 3.91662 13.0059 4.11762 12.9968C4.1515 12.9988 4.18547 12.9988 4.21936 12.9968C4.65737 12.9641 5.06464 12.7627 5.35292 12.4363C5.64119 12.1098 5.78722 11.6846 5.75938 11.2528V3.1261C5.74526 2.61624 5.62815 2.11426 5.41489 1.64946C5.20755 1.18089 4.86125 0.784989 4.42142 0.51369C3.98159 0.24239 3.46878 0.108365 2.95025 0.129195C2.90291 0.126219 2.85557 0.124725 2.80924 0.124725C2.31223 0.131633 1.82771 0.279127 1.41341 0.549634C0.999112 0.820141 0.672507 1.20226 0.472506 1.65045C0.257826 2.11565 0.14066 2.61873 0.128025 3.12958V11.8739C0.123992 11.982 0.123992 12.0841 0.128025 12.1873C0.16093 13.3061 0.641761 14.3667 1.4656 15.1376C1.81857 15.4674 2.23493 15.7244 2.69019 15.8934C3.14544 16.0624 3.63041 16.14 4.11658 16.1217C4.22133 16.1257 4.32003 16.1257 4.41774 16.1217C5.47669 16.035 6.45837 15.5411 7.15035 14.7468C7.84234 13.9526 8.18898 12.9219 8.11525 11.8778V2.50113C8.12077 2.37514 8.07546 2.25211 7.98922 2.15891C7.90298 2.0657 7.7828 2.00987 7.65493 2.00362Z" fill="black"/>
</svg>
