<svg width="18" height="19" viewBox="0 0 18 19" fill="none" xmlns="http://www.w3.org/2000/svg">
<path opacity="0.5" d="M8.30788 0.657972C8.56452 0.0432016 9.43548 0.0432001 9.69212 0.657971L11.6156 5.26563C11.7181 5.51132 11.9433 5.68422 12.2071 5.71993L17.2876 6.40755C17.9378 6.49555 18.1695 7.31704 17.6612 7.73185L13.7428 10.9294C13.5213 11.1101 13.4219 11.401 13.4863 11.6795L14.7388 17.0919C14.8939 17.762 14.1403 18.27 13.5772 17.8748L9.43086 14.9647C9.17229 14.7832 8.82771 14.7832 8.56914 14.9647L4.42273 17.8749C3.8597 18.27 3.10611 17.7621 3.26118 17.0919L4.51357 11.6795C4.57801 11.401 4.47854 11.1101 4.25706 10.9294L0.338803 7.73185C-0.169522 7.31703 0.062222 6.49555 0.712396 6.40756L5.79291 5.71993C6.05674 5.68422 6.28187 5.51132 6.38443 5.26563L8.30788 0.657972Z" fill="#FFE115"/>
</svg>
