<svg width="16" height="10" viewBox="0 0 16 10" fill="none" xmlns="http://www.w3.org/2000/svg">
<path d="M8 0C5.07553 0 2.79584 1.90701 0 4.99835C2.40886 7.64157 4.43019 10 8 10C11.5698 10 14.1938 7.01443 16 5.05371C14.1511 2.75771 11.5271 0 8 0ZM8.00031 9.27753C4.95059 9.27753 3.10894 7.30688 1.00861 4.99841C3.50793 2.28427 5.49494 0.722534 8.00031 0.722534C10.9658 0.722534 13.2838 2.95051 15.0086 5.03082C13.3128 6.87299 11.016 9.27753 8.00031 9.27753ZM8 7.5C7.33718 7.49926 6.70171 7.23565 6.23303 6.76697C5.76435 6.29829 5.50074 5.66282 5.5 5C5.50074 4.33718 5.76435 3.70171 6.23303 3.23303C6.70171 2.76435 7.33718 2.50074 8 2.5C8.66282 2.50074 9.29829 2.76435 9.76697 3.23303C10.2356 3.70171 10.4993 4.33718 10.5 5C10.4993 5.66282 10.2356 6.29829 9.76697 6.76697C9.29829 7.23565 8.66282 7.49926 8 7.5Z" fill="#979A9F"/>
</svg>
